<svg width="386" height="147" viewBox="0 0 386 147" fill="none" xmlns="http://www.w3.org/2000/svg">
<path d="M202.567 1H184.173L177 14.4533L211.373 19.3133L217.227 41.1733C217.227 41.1733 211.287 127.253 211.373 128.333C211.46 129.413 184.173 146.953 184.173 146.953H202.567C237.987 146.953 259.473 118.793 259.473 73.6866C259.473 28.58 237.793 1 202.567 1Z" fill="#8EB3CE"/>
<path d="M89.9935 120.313H18.8801V95.3333C31.3601 71.6599 46.8801 46.6999 76.2135 3.61328H118.42V96.4399H137.24V120.313H118.42V146.56H89.9935V120.313ZM44.9335 97.2332H90.5935V25.0266H89.9935C69.3268 54.8399 56.3201 75.1466 44.9335 96.4399V97.2332Z" fill="#8EB3CE"/>
<path d="M71.1134 120.313H0V95.3333C12.48 71.6599 28 46.6999 57.3334 3.61328H99.5267V96.4399H118.353V120.313H99.54V146.56H71.1134V120.313ZM26.0467 97.2332H71.6867V25.0266H71.0933C50.3933 54.8399 37.42 75.1466 26.0267 96.4399L26.0467 97.2332Z" fill="#B9D1E1"/>
<path d="M203.294 123.134C186.06 123.134 175.994 105.42 175.994 73.3869C175.994 41.6402 186.254 24.0535 203.294 24.0535L152.627 22.1802C152.627 22.1802 151.547 122.414 152.627 123.16C153.707 123.907 196.354 132 196.354 132L203.294 123.134Z" fill="#8EB3CE"/>
<path d="M127.893 73.3868C127.893 28.2801 149.667 0.600098 184.9 0.600098C220.133 0.600098 241.813 28.1868 241.813 73.2668C241.813 118.347 220.353 146.553 184.9 146.553C149.447 146.553 127.893 118.587 127.893 73.3868ZM212.1 73.3868C212.1 41.5401 202.033 24.0534 184.9 24.0534C167.767 24.0534 157.607 41.6668 157.607 73.3868C157.607 105.387 167.673 123.133 184.9 123.133C202.127 123.133 212.1 105.42 212.1 73.3868Z" fill="#B9D1E1"/>
<path d="M338.273 120.313H267.16V95.3333C279.64 71.6599 295.16 46.6999 324.493 3.61328H366.687V96.4399H385.507V120.313H366.7V146.56H338.273V120.313ZM293.207 97.2332H338.867V25.0266H338.273C317.607 54.8399 304.6 75.1466 293.207 96.4399V97.2332Z" fill="#8EB3CE"/>
<path d="M319.393 120.313H248.273V95.3333C260.753 71.6599 276.273 46.6999 305.607 3.61328H347.82V96.4399H366.633V120.313H347.82V146.56H319.393V120.313ZM274.353 97.2332H320.013V25.0266H319.42C298.753 54.8399 285.74 75.1466 274.353 96.4399V97.2332Z" fill="#B9D1E1"/>
</svg>
