<svg width="146" height="135" fill="none" xmlns="http://www.w3.org/2000/svg">
  <g clip-path="url(#Frame__clip0)">
    <path opacity=".5" d="M74.155 134.949c27.823 0 50.378-1.815 50.378-4.054 0-2.239-22.555-4.053-50.378-4.053s-50.378 1.814-50.378 4.053 22.555 4.054 50.378 4.054z" fill="url(#Frame__paint0_linear)"/>
    <path d="M140.864 81.688c-1.49 4.566-3.287 8.774-5.341 12.417-9.706 17.189-25.215 27.862-42.418 32.48-26.859 7.286-57.928-.205-77.545-20.678-4.776-5.029-8.473-10.878-11.04-17.344C1.334 80.405-.155 71.323 0 61.984c0-1.078.051-2.104.103-3.181.513-8.98 2.67-17.805 6.727-25.45C17.614 12.93 39.85 16.265 57.054 19.857c10.117 2.103 18.23 5.695 27.937.77 10.014-5.132 19.463-12.88 30.709-13.444 2.362-.103 4.776.05 7.087.872 12.325 4.567 18.95 16.317 21.466 30.171 2.568 14.008.924 30.274-3.389 43.46z" fill="#E7E9FF"/>
    <path d="M140.864 81.688c-1.49 4.566-3.287 8.774-5.341 12.417-9.706 17.189-25.215 27.862-42.418 32.48-26.859 7.286-57.928-.205-77.545-20.678-4.776-5.029-8.473-10.879-11.04-17.344C1.334 80.405-.155 71.323 0 61.984l16.587 1.283 1.079-31.608 25.471 6.722-1.951 36.38 10.938.667 1.643-25.553 25.472.513-1.54 26.887 11.708-.052-.257-11.34 12.941.257V27.4l18.95 17.908.565 22.68 7.395 1.539-1.13-31.66 16.382.257c2.568 14.11.924 30.377-3.389 43.564z" fill="url(#Frame__paint1_linear)"/>
    <path d="M135.163 26.271h-19.925c.719-.102 2.106-.82 3.338-1.436v-.052c0-.923.77-1.693 1.695-1.693h.205c.36-.308.873-.564 1.541-.82.308-.976 1.181-1.694 2.259-1.694.771 0 1.49.41 1.9.975.668.102 1.079.462 1.387.872a2.854 2.854 0 011.181-.256c1.284 0 2.362.923 2.619 2.154 1.952.411 3.8 1.95 3.8 1.95z" fill="url(#Frame__paint2_linear)"/>
    <path opacity=".7" d="M77.442 19.806c-.463.154-.976.205-1.49.257-7.651.41-1.489-8.672.822-10.98 4.776-4.824 11.4-7.852 18.077-8.98 2.465-.41 5.803.41 5.494 3.54-.308 3.027-4.005 6.004-6.316 7.543-5.084 3.386-10.682 6.978-16.587 8.62z" fill="#E7E9FF"/>
    <path d="M140.864 81.688c-1.49 4.566-3.287 8.774-5.341 12.417-9.706 17.189-25.215 27.862-42.418 32.48-26.859 7.286-57.928-.205-77.545-20.678-4.776-5.029-8.473-10.878-11.04-17.344 3.491-1.642 7.137-2.873 10.835-3.745 15.252-3.592 30.915-.513 46.424.82 26.447 2.207 52.74-.615 79.085-3.95z" fill="url(#Frame__paint3_linear)"/>
    <path d="M101.372 117.862c4.263-8.364 6.163 3.181 8.063-1.385.77-3.233-1.232-6.363 1.078-8.98 3.338-2.925 3.801 7.697 5.803.257a19.162 19.162 0 013.236-6.466c.821-1.077 1.951-2.155 3.338-2.462 2.567-.565 3.389 2.206 3.081 4.207-.154.975-.462 1.899-.822 2.771-.719 1.591-1.797 3.079-2.362 4.772-.257.821 1.746.462 2.054.41 1.079-.154 2.465-.667 3.39.206.821.769.667 2.206.256 3.13-.924 1.898-3.132 2.822-5.084 3.437-1.386.462-2.876.77-4.262 1.283-.514.205-1.952.411-1.746 1.283.205.77 1.643 1.026 2.208 1.385.822.565 1.592 1.232 1.695 2.309.257 4.464-4.622 6.004-8.166 6.517-3.183.462-10.116 1.283-12.119-2.053-1.592-2.924-.976-7.799.359-10.621z" fill="url(#Frame__paint4_linear)"/>
    <path d="M123.609 113.962a.335.335 0 00-.463-.102c-2.054 1.18-4.57 1.488-6.83.821a28.883 28.883 0 001.952-2.309c2.259-2.925 3.492-5.593 3.8-8.261 0-.206-.103-.36-.308-.36-.205 0-.36.103-.36.308-.256 2.515-1.437 5.08-3.646 7.902-.873 1.129-1.9 2.258-2.824 3.336a65.169 65.169 0 00-1.695 1.949c-.924-1.898-1.181-4.053-.77-6.157.051-.154-.103-.359-.257-.411-.154-.051-.359.103-.411.257-.462 2.309-.102 4.721.976 6.824-.308.36-.565.719-.822 1.027a48.389 48.389 0 00-2.311 3.335c-.975-.924-1.694-2.155-2.054-3.438-.051-.154-.257-.257-.411-.205-.154.051-.256.256-.205.41.411 1.437 1.233 2.822 2.362 3.797a44.045 44.045 0 00-.924 1.591l-.051-.051c-.514-.565-1.079-1.18-1.284-1.95-.052-.154-.257-.257-.411-.205a.349.349 0 00-.206.41c.257.872.873 1.591 1.438 2.206l.206.206a19.72 19.72 0 01-.822 1.385.334.334 0 00.103.462c.051 0 .103.051.103.051.102 0 .256-.051.308-.154 1.438-2.514 2.875-5.08 4.673-7.389.565-.718 1.181-1.436 1.797-2.155.36.257.771.36 1.181.411.206 0 .411.051.565.051 1.079 0 2.157-.051 3.236-.154.102 0 .308-.051.513-.154.154-.102.154-.308.051-.461-.102-.154-.308-.154-.462-.052 0 0-.102 0-.154.052a32.19 32.19 0 01-3.132.153c-.514 0-.976-.051-1.336-.307.257-.257.514-.565.771-.821.154-.154.308-.36.462-.513.616.205 1.232.359 1.849.41 2.002.205 4.057-.205 5.751-1.231.052-.154.103-.36.052-.514z" fill="#237D33"/>
    <path d="M35.69 36.328v91.334a3.659 3.659 0 003.647 3.644h68.711a3.66 3.66 0 003.647-3.644v-73.17L91.769 32.686H39.39c-2.003 0-3.647 1.591-3.698 3.643z" fill="url(#Frame__paint5_linear)"/>
    <path opacity=".1" d="M91.77 32.685H39.387a3.659 3.659 0 00-3.646 3.643V67.68c6.265 3.9 12.89 7.645 20.952 5.233 15.869-4.669 13.763-14.88 23.52-24.886 4.674-4.618 10.425-7.953 16.793-9.646l-5.238-5.696zm19.925 51.825c-6.368 4.669-14.328 9.697-19.926 10.313-10.63 1.18-24.855-4.413-36.718 4.413-11.862 8.826-2.773 15.342-14.43 19.806-1.849.719-3.492 1.232-4.879 1.693v6.979a3.659 3.659 0 003.646 3.643H108.1a3.658 3.658 0 003.646-3.643l-.051-43.204z" fill="#fff"/>
    <path opacity=".23" d="M56.874 57.033a6.16 6.16 0 00-5.989-6.325 6.16 6.16 0 00-6.33 5.984 6.16 6.16 0 005.988 6.325 6.16 6.16 0 006.331-5.984z" fill="#fff"/>
    <path d="M53.049 60.188a.965.965 0 00.565-.975c-.103-.667-.36-1.282-.77-1.744-.514-.616-1.233-.975-1.952-.975-.77 0-1.438.359-1.952.975-.41.462-.667 1.026-.77 1.693-.051.41.154.82.565.975.565.205 1.335.462 2.208.462a5.89 5.89 0 002.106-.41z" fill="url(#Frame__paint6_linear)"/>
    <path d="M50.84 53.21a1.6 1.6 0 00-1.592 1.59 1.6 1.6 0 001.592 1.591 1.6 1.6 0 001.592-1.59 1.6 1.6 0 00-1.592-1.591zm1.027 2.001c-.154.462-.513.77-1.027.77-.462 0-.873-.308-1.027-.77-.051-.103.052-.205.154-.205h1.746c.103 0 .206.102.154.205z" fill="url(#Frame__paint7_linear)"/>
    <path d="M35.948 130.69c-.308.205-.77.205-1.079 0-13.66-9.287-14.687-20.371-14.482-24.732.052-1.078.873-1.899 1.9-2.053 6.112-.769 10.528-3.284 12.428-4.618a2.022 2.022 0 011.079-.308c.41 0 .77.103 1.13.36 1.9 1.385 6.213 4.053 12.324 4.977 1.028.154 1.798 1.026 1.85 2.104.102 4.31-1.233 15.393-15.15 24.27z" fill="url(#Frame__paint8_linear)"/>
    <path d="M35.845 121.608c4.283 0 7.754-3.469 7.754-7.748s-3.471-7.748-7.754-7.748c-4.283 0-7.754 3.469-7.754 7.748s3.471 7.748 7.754 7.748z" fill="url(#Frame__paint9_linear)"/>
    <path d="M33.945 117.092l.103.052c.308.205.719.154.924-.103l4.93-6.362c.205-.308.154-.719-.103-.924l-.308-.257c-.308-.205-.719-.154-.924.103l-4.263 5.49-1.54-1.334c-.257-.205-.617-.205-.822.051l-.36.411c-.205.257-.205.616.052.821l1.951 1.693.36.359z" fill="url(#Frame__paint10_linear)"/>
    <path d="M91.77 32.685V49.31a4.963 4.963 0 004.878 4.977l14.995.206-19.874-21.808z" fill="url(#Frame__paint11_linear)"/>
    <path opacity=".8" d="M60.29 52.902h14.224a1.27 1.27 0 011.284 1.283 1.27 1.27 0 01-1.284 1.282H60.29a1.27 1.27 0 01-1.284-1.282c0-.719.616-1.283 1.283-1.283z" fill="url(#Frame__paint12_linear)"/>
    <path opacity=".8" d="M60.444 57.263h22.698a1.27 1.27 0 011.284 1.283 1.27 1.27 0 01-1.284 1.283H60.444a1.27 1.27 0 01-1.284-1.283 1.27 1.27 0 011.284-1.283z" fill="url(#Frame__paint13_linear)"/>
    <path opacity=".8" d="M46.218 69.989h54.949c.822 0 1.541.667 1.541 1.539 0 .821-.668 1.54-1.541 1.54H46.218c-.821 0-1.54-.668-1.54-1.54s.719-1.54 1.54-1.54z" fill="url(#Frame__paint14_linear)"/>
    <path opacity=".8" d="M46.218 76.403h54.949c.822 0 1.541.666 1.541 1.539 0 .82-.668 1.54-1.541 1.54H46.218c-.821 0-1.54-.668-1.54-1.54 0-.821.719-1.54 1.54-1.54z" fill="url(#Frame__paint15_linear)"/>
    <path opacity=".8" d="M46.218 82.868h54.949c.822 0 1.541.667 1.541 1.54 0 .82-.668 1.538-1.541 1.538H46.218c-.821 0-1.54-.667-1.54-1.539 0-.82.719-1.54 1.54-1.54z" fill="url(#Frame__paint16_linear)"/>
    <path opacity=".8" d="M46.218 89.538h20.028c.822 0 1.541.667 1.541 1.54 0 .82-.668 1.539-1.54 1.539H46.218c-.821 0-1.54-.667-1.54-1.54 0-.82.719-1.539 1.54-1.539z" fill="url(#Frame__paint17_linear)"/>
    <path d="M76.21 42.794v-1.386h.563s.051 0 .051.052v.307c.052-.05.052-.05.103-.102l.206-.205c.102-.052.153-.103.256-.103h.052c.102 0 .205 0 .308.051a.799.799 0 01.41.308c0 .051.052.103.052.103h.051c.052-.052.103-.103.103-.154l.103-.103a.651.651 0 01.462-.205c.154 0 .308 0 .462.051.308.103.462.308.514.565 0 .102.05.205.05.256v1.899c0 .051 0 .051-.05.051h-.463s-.051 0-.051-.051v-2.001c0-.103-.051-.206-.205-.206a.65.65 0 00-.72.41c0 .103-.05.155-.05.257v1.591c0 .103 0 .103-.103.103h-.411v-2.155c-.052-.103-.103-.206-.206-.206-.205-.051-.36 0-.513.154l-.103.103c-.103.154-.103.257-.154.41v1.54c0 .051 0 .051-.051.051h-.461v-.103c-.206-.461-.206-.872-.206-1.282z" fill="url(#Frame__paint18_linear)"/>
    <path d="M75.644 43.82c-.103-.051-.154-.103-.154-.205v-1.386c0-.102 0-.154-.051-.256a.747.747 0 00-.308-.462.39.39 0 00-.206-.103c-.154-.051-.308-.051-.462-.051h-.976s-.051 0-.051.051v.513h1.078c.052 0 .103 0 .154.052.103 0 .155.102.155.154v.154c0 .05 0 .102-.052.102l-.051.051c-.103.052-.154.052-.257.052-.154 0-.36.051-.513.051-.103 0-.206.051-.309.103a.848.848 0 00-.513.513c-.052.102-.052.256-.052.359.052.257.155.462.411.616.154.102.309.102.463.154.308 0 .616-.052.873-.206.05 0 .05-.05.05-.05.052 0 .052.05.052.05.052.103.154.154.206.154h.462c.051 0 .051-.05.051-.102v-.154c.103-.154.154-.154 0-.154zm-.77-.616c0 .154-.103.257-.206.36l-.308.153c-.102 0-.256.052-.36 0-.05 0-.102-.051-.204-.102a.271.271 0 01-.052-.41c.052-.052.103-.103.154-.103.103-.052.154-.052.257-.103.103 0 .205-.051.308-.051h.36s.05 0 .05.05v.206z" fill="url(#Frame__paint19_linear)"/>
    <path d="M82.731 42.742c0-.153 0-.307-.051-.461-.052-.154-.103-.36-.206-.514-.154-.256-.41-.41-.719-.461a.713.713 0 00-.462 0 1.1 1.1 0 00-.822.513 1.534 1.534 0 00-.205.41c-.051.308-.103.667 0 .975l.154.462c.154.257.36.462.668.513.308.051.565.051.873-.051.257-.103.462-.308.616-.565 0-.05.051-.102.051-.102v-.051s0-.052-.051-.052h-.513c-.052 0-.052 0-.052.052l-.051.05a.718.718 0 01-.206.155c-.154.051-.308.051-.462.051-.154-.051-.257-.154-.36-.256a.741.741 0 01-.102-.36c0-.102 0-.102.103-.102h1.797v-.206zm-.667-.256h-1.182v-.051c.052-.154.103-.308.206-.41.102-.104.205-.155.308-.155h.308c.103.051.205.103.308.205.052.103.103.206.052.41.05 0 .05 0 0 0z" fill="url(#Frame__paint20_linear)"/>
    <path d="M66.195 42.434v-1.693s0-.051.052-.051h.563v1.693l.052-.051.873-.872c.102-.103.051-.103.205-.103h.616s0 .051-.05.051c-.31.308-.617.565-.874.873l-.154.154c.051.05.051.102.103.154l.924 1.385c0 .051.051.051.051.103v.05h-.563c-.052 0-.103 0-.103-.05 0-.052-.052-.052-.052-.103-.256-.36-.462-.718-.718-1.078 0-.051-.052-.051-.052-.051l-.257.257-.051.05v.926s0 .05-.051.05h-.513s-.052 0-.052-.05v-.103c.051-.462.051-1.026.051-1.54z" fill="url(#Frame__paint21_linear)"/>
    <path d="M65.733 42.434a.582.582 0 00-.154-.41c-.154-.308-.36-.513-.719-.616-.103 0-.154-.051-.257-.051-.205 0-.36 0-.565.051a1.062 1.062 0 00-.719.513c-.051.103-.102.257-.154.36-.051.154-.051.359-.051.513v.205c0 .205.051.36.154.564.154.308.36.513.668.616.154.051.308.103.462.103h.36a.583.583 0 00.41-.154c.206-.103.36-.308.462-.513.103-.206.154-.41.154-.616 0-.205 0-.41-.051-.565zm-.616.77c0 .103-.052.154-.103.205-.103.154-.205.257-.36.257a.438.438 0 01-.359 0 .828.828 0 01-.36-.205c-.05-.052-.102-.103-.102-.206-.051-.102-.051-.205-.103-.307v-.41c0-.155.052-.257.103-.36.051-.051.103-.154.154-.205.103-.103.205-.154.308-.154h.257c.205 0 .36.102.462.308.051.05.051.154.103.205.051.154.051.256.051.41 0 .206 0 .36-.051.462z" fill="url(#Frame__paint22_linear)"/>
    <path d="M71.176 42.537a.866.866 0 00-.154-.513.969.969 0 00-.616-.564.967.967 0 00-.41-.103c-.206 0-.36 0-.566.051a1.023 1.023 0 00-.616.41 1.269 1.269 0 00-.205.463c-.052.154-.052.307-.052.461v.462c0 .154.052.36.154.513a1.008 1.008 0 00.873.565c.206.051.411 0 .668-.052.257-.05.514-.205.668-.461a.582.582 0 00.154-.41c.051-.155.051-.36.051-.565.051-.103.051-.154.051-.257zm-.667.718l-.154.308a1.124 1.124 0 01-.257.154.713.713 0 01-.462 0c-.154-.051-.257-.102-.36-.256a2.652 2.652 0 01-.154-.36 1.248 1.248 0 010-.615.95.95 0 01.103-.36.54.54 0 01.462-.256h.206c.205 0 .308.103.41.257.052.05.052.154.103.205.051.102.051.205.051.256v.154c.155.206.103.36.052.514z" fill="url(#Frame__paint23_linear)"/>
    <path d="M61.83 42.845v-.872s0-.052-.051-.052h-.257s-.051 0-.051-.05v-.462c0-.052 0-.052.05-.052h.258v-.616c0-.051 0-.051.051-.051h.514l.051.051v.667s0 .052.051.052h.36s.051 0 .051.05v.411c0 .052 0 .052-.051.052h-.411s-.051 0-.051.051v1.539c0 .052 0 .103.051.103a.4.4 0 00.205.205c.052 0 .103.052.154.052h.052s.051 0 .051.05v.257s0 .052-.051.052c-.154 0-.308.051-.462.051-.103 0-.206 0-.309-.051a.4.4 0 01-.205-.205c-.051-.052-.051-.154-.051-.206v-.718c.102-.205.102-.257.051-.308.051 0 0 0 0 0z" fill="url(#Frame__paint24_linear)"/>
    <path d="M71.587 42.794V41.46s0-.052.052-.052h.462c.051 0 .051 0 .051.052v.307l.052-.05c.05-.052.05-.103.102-.155l.154-.154c.103-.051.206-.102.308-.102.154 0 .154 0 .154.154v.41h-.308c-.154.051-.256.103-.308.257a.967.967 0 00-.102.41v1.591s0 .051-.052.051h-.513s-.052 0-.052-.051v-1.334z" fill="url(#Frame__paint25_linear)"/>
    <path d="M71.485 120.12c-.103 0-.257 0-.36-.052-1.027-.205-1.078-1.077-1.13-1.847-.051-.821-.102-1.385-.821-1.488-1.027-.154-2.311.872-3.082 1.488l-.05.052c-.052.051-.155.102-.206.205-.565.513-1.541 1.334-2.363 1.231-.308-.051-.565-.205-.719-.462-.205-.307-.256-.769-.102-1.231.205-.718.77-1.385 1.284-1.95l.154-.154c.719-.821 1.438-1.693 1.438-2.822 0-.41-.154-.718-.463-.872-.565-.359-1.489-.205-2.157.102-4.519 1.95-8.576 4.567-12.376 7.081-.102.052-.205.052-.257-.051-.05-.103-.05-.205.052-.256 3.8-2.515 7.908-5.132 12.427-7.081.72-.308 1.798-.514 2.517-.103.36.256.616.616.616 1.18.051 1.232-.719 2.155-1.49 3.079l-.153.154c-.462.564-.976 1.129-1.181 1.796-.103.359-.103.718.102.923.154.205.308.308.462.308.617.103 1.541-.667 2.055-1.129.102-.051.154-.154.205-.205l.051-.051c.822-.667 2.157-1.796 3.338-1.591 1.027.154 1.079 1.026 1.13 1.796.051.872.154 1.385.822 1.539.719.154 1.284-.308 1.9-.769.462-.36.924-.719 1.49-.821.615-.154 1.18.154 1.797.41.975.462 1.591.667 2.105-.103.051-.102.154-.102.257-.051.102.051.102.154.051.257-.719 1.129-1.695.667-2.516.256-.514-.256-1.079-.513-1.54-.41-.514.102-.925.41-1.336.769-.668.411-1.233.873-1.951.873z" fill="url(#Frame__paint26_linear)"/>
    <path d="M81.19 117.195s-2.67 2.052-3.08 1.796c0 0-.617-.154 1.386-3.489l1.694 1.693z" fill="url(#Frame__paint27_linear)"/>
    <path d="M113.389 86.152c.514-.052.925-.462.873-1.026-.154-2.566 3.39-4.67 6.214-6.414 1.335-.821 2.619-1.591 3.441-2.36 1.643-1.54 3.697-3.695 4.724-6.569 1.541-4.053 1.284-7.542 1.181-9.03 0-.206-.051-.36-.051-.462.103-.41-.154-.872-.565-1.078a.922.922 0 00-1.232.513c-.103.308-.103.514-.052 1.13.103 1.385.309 4.566-1.078 8.21-.924 2.462-2.773 4.412-4.262 5.849-.668.615-1.849 1.334-3.133 2.103-3.287 2.001-7.395 4.464-7.138 8.159.103.615.565.975 1.078.975z" fill="url(#Frame__paint28_linear)"/>
    <path d="M80.728 117.759s26.088-23.038 48.838-55.057c0 0 1.746-6.567-4.211-3.437 0 0-22.031 19.6-46.578 56.904l1.951 1.59z" fill="url(#Frame__paint29_linear)"/>
    <path opacity=".1" d="M79.958 115.912s26.088-23.039 48.837-55.057c0 0 .257-1.026.206-2.103 1.284.974.513 4.002.513 4.002-22.749 32.018-48.837 55.057-48.837 55.057l-2.003-1.642c.154-.257.36-.513.514-.821l.77.564z" fill="#3333B0"/>
  </g>
  <defs>
    <linearGradient id="Frame__paint0_linear" x1="244.82" y1="219.116" x2="12.041" y2="98.614" gradientUnits="userSpaceOnUse">
      <stop stop-color="#BFC5FF"/>
      <stop offset=".953" stop-color="#E7E9FF"/>
    </linearGradient>
    <linearGradient id="Frame__paint1_linear" x1="80.69" y1="-56.831" x2="68.896" y2="115.09" gradientUnits="userSpaceOnUse">
      <stop stop-color="#BFC5FF"/>
      <stop offset=".953" stop-color="#E7E9FF"/>
    </linearGradient>
    <linearGradient id="Frame__paint2_linear" x1="114.891" y1="37.306" x2="139.885" y2="10.54" gradientUnits="userSpaceOnUse">
      <stop stop-color="#fff"/>
      <stop offset=".953" stop-color="#FDFBFC" stop-opacity=".3"/>
    </linearGradient>
    <linearGradient id="Frame__paint3_linear" x1="81.758" y1="48.391" x2="58.782" y2="142.042" gradientUnits="userSpaceOnUse">
      <stop stop-color="#BFC5FF"/>
      <stop offset=".953" stop-color="#E7E9FF"/>
    </linearGradient>
    <linearGradient id="Frame__paint4_linear" x1="102.763" y1="133.753" x2="123.478" y2="104.628" gradientUnits="userSpaceOnUse">
      <stop stop-color="#2B7333"/>
      <stop offset=".953" stop-color="#47BF56"/>
    </linearGradient>
    <linearGradient id="Frame__paint5_linear" x1="73.699" y1="32.683" x2="73.699" y2="131.328" gradientUnits="userSpaceOnUse">
      <stop stop-color="#D6537E"/>
      <stop offset=".989" stop-color="#F48796"/>
    </linearGradient>
    <linearGradient id="Frame__paint6_linear" x1="50.806" y1="61.254" x2="50.978" y2="55.156" gradientUnits="userSpaceOnUse">
      <stop stop-color="#ECC7D7"/>
      <stop offset=".989" stop-color="#fff"/>
    </linearGradient>
    <linearGradient id="Frame__paint7_linear" x1="50.895" y1="57.118" x2="50.808" y2="51.669" gradientUnits="userSpaceOnUse">
      <stop stop-color="#ECC7D7"/>
      <stop offset=".989" stop-color="#fff"/>
    </linearGradient>
    <linearGradient id="Frame__paint8_linear" x1="32.414" y1="128.263" x2="37.386" y2="96.815" gradientUnits="userSpaceOnUse">
      <stop stop-color="#5350B0"/>
      <stop offset=".994" stop-color="#5BA3FF"/>
    </linearGradient>
    <linearGradient id="Frame__paint9_linear" x1="36.481" y1="121.499" x2="34.925" y2="103.014" gradientUnits="userSpaceOnUse">
      <stop stop-color="#ECC7D7"/>
      <stop offset=".989" stop-color="#fff"/>
    </linearGradient>
    <linearGradient id="Frame__paint10_linear" x1="36.011" y1="121.884" x2="35.605" y2="105.567" gradientUnits="userSpaceOnUse">
      <stop stop-color="#5350B0"/>
      <stop offset=".994" stop-color="#5BA3FF"/>
    </linearGradient>
    <linearGradient id="Frame__paint11_linear" x1="101.676" y1="59.317" x2="101.778" y2="31.482" gradientUnits="userSpaceOnUse">
      <stop stop-color="#5350B0"/>
      <stop offset=".994" stop-color="#5BA3FF"/>
    </linearGradient>
    <linearGradient id="Frame__paint12_linear" x1="67.265" y1="73.314" x2="67.654" y2="30.241" gradientUnits="userSpaceOnUse">
      <stop stop-color="#ECC7D7"/>
      <stop offset=".989" stop-color="#fff"/>
    </linearGradient>
    <linearGradient id="Frame__paint13_linear" x1="71.662" y1="73.354" x2="72.051" y2="30.28" gradientUnits="userSpaceOnUse">
      <stop stop-color="#ECC7D7"/>
      <stop offset=".989" stop-color="#fff"/>
    </linearGradient>
    <linearGradient id="Frame__paint14_linear" x1="73.684" y1="72.792" x2="74.144" y2="21.828" gradientUnits="userSpaceOnUse">
      <stop stop-color="#ECC7D7"/>
      <stop offset=".989" stop-color="#fff"/>
    </linearGradient>
    <linearGradient id="Frame__paint15_linear" x1="73.742" y1="72.792" x2="74.203" y2="21.829" gradientUnits="userSpaceOnUse">
      <stop stop-color="#ECC7D7"/>
      <stop offset=".989" stop-color="#fff"/>
    </linearGradient>
    <linearGradient id="Frame__paint16_linear" x1="73.801" y1="72.793" x2="74.261" y2="21.829" gradientUnits="userSpaceOnUse">
      <stop stop-color="#ECC7D7"/>
      <stop offset=".989" stop-color="#fff"/>
    </linearGradient>
    <linearGradient id="Frame__paint17_linear" x1="56.345" y1="80.502" x2="56.764" y2="34.064" gradientUnits="userSpaceOnUse">
      <stop stop-color="#ECC7D7"/>
      <stop offset=".989" stop-color="#fff"/>
    </linearGradient>
    <linearGradient id="Frame__paint18_linear" x1="77.56" y1="51.079" x2="78.593" y2="33.504" gradientUnits="userSpaceOnUse">
      <stop stop-color="#ECE3D7"/>
      <stop offset=".989" stop-color="#fff"/>
    </linearGradient>
    <linearGradient id="Frame__paint19_linear" x1="74.039" y1="50.872" x2="75.072" y2="33.297" gradientUnits="userSpaceOnUse">
      <stop stop-color="#ECE3D7"/>
      <stop offset=".989" stop-color="#fff"/>
    </linearGradient>
    <linearGradient id="Frame__paint20_linear" x1="80.995" y1="51.28" x2="82.028" y2="33.706" gradientUnits="userSpaceOnUse">
      <stop stop-color="#ECE3D7"/>
      <stop offset=".989" stop-color="#fff"/>
    </linearGradient>
    <linearGradient id="Frame__paint21_linear" x1="66.913" y1="50.453" x2="67.946" y2="32.878" gradientUnits="userSpaceOnUse">
      <stop stop-color="#ECE3D7"/>
      <stop offset=".989" stop-color="#fff"/>
    </linearGradient>
    <linearGradient id="Frame__paint22_linear" x1="64.019" y1="50.283" x2="65.052" y2="32.708" gradientUnits="userSpaceOnUse">
      <stop stop-color="#ECE3D7"/>
      <stop offset=".989" stop-color="#fff"/>
    </linearGradient>
    <linearGradient id="Frame__paint23_linear" x1="69.417" y1="50.6" x2="70.45" y2="33.026" gradientUnits="userSpaceOnUse">
      <stop stop-color="#ECE3D7"/>
      <stop offset=".989" stop-color="#fff"/>
    </linearGradient>
    <linearGradient id="Frame__paint24_linear" x1="61.773" y1="50.151" x2="62.806" y2="32.576" gradientUnits="userSpaceOnUse">
      <stop stop-color="#ECE3D7"/>
      <stop offset=".989" stop-color="#fff"/>
    </linearGradient>
    <linearGradient id="Frame__paint25_linear" x1="71.745" y1="50.737" x2="72.778" y2="33.162" gradientUnits="userSpaceOnUse">
      <stop stop-color="#ECE3D7"/>
      <stop offset=".989" stop-color="#fff"/>
    </linearGradient>
    <linearGradient id="Frame__paint26_linear" x1="50.177" y1="115.866" x2="78.798" y2="115.866" gradientUnits="userSpaceOnUse">
      <stop stop-color="#ECE3D7"/>
      <stop offset=".989" stop-color="#fff"/>
    </linearGradient>
    <linearGradient id="Frame__paint27_linear" x1="85.192" y1="110.214" x2="87.903" y2="106.784" gradientUnits="userSpaceOnUse">
      <stop stop-color="#5656B0"/>
      <stop offset=".994" stop-color="#6F6FB0"/>
    </linearGradient>
    <linearGradient id="Frame__paint28_linear" x1="112.369" y1="72.668" x2="129.985" y2="72.668" gradientUnits="userSpaceOnUse">
      <stop stop-color="#5656B0"/>
      <stop offset=".994" stop-color="#6F6FB0"/>
    </linearGradient>
    <linearGradient id="Frame__paint29_linear" x1="143.976" y1="108.443" x2="90.531" y2="80.776" gradientUnits="userSpaceOnUse">
      <stop stop-color="#5350B0"/>
      <stop offset=".994" stop-color="#5BA3FF"/>
    </linearGradient>
    <clipPath id="Frame__clip0">
      <path fill="#fff" d="M0 0h145.485v135H0z"/>
    </clipPath>
  </defs>
</svg>
