<svg width="204" height="206" viewBox="0 0 204 206" fill="none" xmlns="http://www.w3.org/2000/svg">
<path opacity="0.096329" d="M102 206C158.333 206 204 159.885 204 103C204 46.1147 158.333 0 102 0C45.667 0 0 46.1147 0 103C0 159.885 45.667 206 102 206Z" fill="#5675D3"/>
<path opacity="0.096329" d="M102 175.958C141.903 175.958 174.25 143.294 174.25 103C174.25 62.7063 141.903 30.0417 102 30.0417C62.0975 30.0417 29.7501 62.7063 29.7501 103C29.7501 143.294 62.0975 175.958 102 175.958Z" fill="#5675D3"/>
<g filter="url(#filter0_d)">
<path d="M102 144.2C124.533 144.2 142.8 125.754 142.8 103C142.8 80.2459 124.533 61.8 102 61.8C79.4667 61.8 61.2 80.2459 61.2 103C61.2 125.754 79.4667 144.2 102 144.2Z" fill="#5675D3"/>
</g>
<path d="M113.9 103L96.9 113.3V92.7L113.9 103Z" fill="white"/>
<defs>
<filter id="filter0_d" x="45.2" y="53.8" width="113.6" height="114.4" filterUnits="userSpaceOnUse" color-interpolation-filters="sRGB">
<feFlood flood-opacity="0" result="BackgroundImageFix"/>
<feColorMatrix in="SourceAlpha" type="matrix" values="0 0 0 0 0 0 0 0 0 0 0 0 0 0 0 0 0 0 127 0"/>
<feOffset dy="8"/>
<feGaussianBlur stdDeviation="8"/>
<feColorMatrix type="matrix" values="0 0 0 0 0 0 0 0 0 0 0 0 0 0 0 0 0 0 0.247905 0"/>
<feBlend mode="normal" in2="BackgroundImageFix" result="effect1_dropShadow"/>
<feBlend mode="normal" in="SourceGraphic" in2="effect1_dropShadow" result="shape"/>
</filter>
</defs>
</svg>
