<svg width="302" height="142" viewBox="0 0 302 142" fill="none" xmlns="http://www.w3.org/2000/svg">
<path d="M263.336 133.077L276.854 142L280.207 128.499L266.585 119.987L263.336 133.077Z" fill="url(#paint0_linear)"/>
<g opacity="0.2">
<g opacity="0.2">
<path opacity="0.2" d="M276.12 139.534L271.248 136.364L271.195 136.306L272.086 132.725C272.086 132.725 272.086 132.666 272.138 132.666H272.191L277.064 135.719L277.116 135.777L276.173 139.476C276.173 139.476 276.173 139.534 276.12 139.534C276.12 139.593 276.12 139.593 276.12 139.534Z" fill="#9E6D29"/>
</g>
</g>
<path d="M276.854 142L285.813 141.178L289.114 128.087L280.207 128.498L276.854 142Z" fill="url(#paint1_linear)"/>
<path d="M280.207 128.499L266.584 119.987L275.072 120.398L289.114 128.088L280.207 128.499Z" fill="url(#paint2_linear)"/>
<path d="M284.923 133.429L286.233 128.205L272.348 120.222L270.672 120.163L284.347 128.322L283.037 133.606L283.194 133.488L283.246 133.606L283.403 133.488L283.456 133.547L283.613 133.488L283.665 133.547L283.77 133.429L283.875 133.547L283.98 133.429L284.085 133.488L284.189 133.429L284.294 133.488L284.451 133.371L284.504 133.488L284.661 133.371L284.713 133.429L284.871 133.312L284.923 133.429Z" fill="#9E6D29"/>
<path opacity="0.2" d="M278.216 122.981C278.216 122.981 278.216 123.039 278.216 122.981C278.269 123.039 278.321 123.039 278.321 123.039L301.008 111.945C301.008 111.945 301.06 111.945 301.06 111.886V111.827C301.06 111.769 301.008 111.769 300.955 111.827H300.903L278.269 122.922L278.216 122.981C278.216 122.922 278.164 122.922 278.216 122.981Z" fill="#3F449C"/>
<path opacity="0.2" d="M263.493 100.322C263.493 100.38 263.493 100.38 263.493 100.38L278.216 122.922C278.216 122.922 278.216 122.981 278.269 122.981H278.321C278.374 122.981 278.374 122.922 278.321 122.863L278.269 122.805L263.598 100.322C263.598 100.322 263.546 100.263 263.493 100.322Z" fill="#3F449C"/>
<path d="M300.956 111.769C300.956 111.828 301.009 111.828 301.062 111.887V111.828C301.009 111.769 301.009 111.709 300.956 111.769Z" fill="url(#paint3_radial)"/>
<path d="M286.285 90.1663C286.337 90.225 286.337 90.2837 286.39 90.4011C286.442 90.4598 286.442 90.5772 286.495 90.6359C286.547 90.7533 286.599 90.9294 286.652 91.1642C287.438 93.6297 289.376 100.263 291.105 105.84C291.839 108.246 292.52 110.418 293.044 112.003C293.515 112.062 293.935 112.062 294.406 112.121C296.659 112.297 298.86 112.238 300.798 112.003C300.903 112.003 301.008 111.945 301.165 111.945C301.899 100.967 296.03 93.8645 288.119 90.812C287.543 90.5772 286.966 90.4011 286.39 90.225C286.285 90.1663 286.285 90.1663 286.285 90.1663Z" fill="url(#paint4_linear)"/>
<path d="M285.656 110.771C285.761 110.829 285.866 110.829 285.971 110.829C288.381 111.358 290.739 111.769 292.992 111.945C293.463 112.003 293.882 112.003 294.354 112.062C294.511 110.771 294.616 109.597 294.616 108.423C294.773 98.4432 290.058 93.1014 287.595 91.1055C286.914 90.5772 286.442 90.225 286.285 90.1663C286.233 90.1663 286.233 90.1663 286.233 90.1663C286.233 90.225 286.337 90.5772 286.39 91.1055C286.652 92.7491 287.071 96.5648 286.704 101.965C286.599 104.548 286.233 107.483 285.656 110.771Z" fill="url(#paint5_linear)"/>
<path d="M263.441 100.439C265.118 101.789 267.056 103.139 269.204 104.372C269.571 104.607 269.938 104.783 270.357 105.018C272.977 102.728 277.692 98.2084 281.308 94.745C283.089 93.0426 284.661 91.5751 285.499 90.812C285.918 90.4598 286.18 90.225 286.233 90.1663C285.656 89.9902 285.028 89.814 284.451 89.6966C282.722 89.2857 280.993 89.1096 279.317 89.1096C272.872 89.1096 266.899 92.4556 263.441 100.439Z" fill="url(#paint6_linear)"/>
<path opacity="0.2" d="M263.493 100.323C263.546 100.323 263.599 100.323 263.652 100.323C263.599 100.323 263.546 100.262 263.493 100.323Z" fill="#3F449C"/>
<path d="M269.152 104.372C269.519 104.607 269.886 104.783 270.305 105.018C272.348 106.133 274.601 107.19 276.959 108.07C277.064 108.129 277.169 108.129 277.273 108.188C278.845 103.198 280.627 99.2652 282.198 96.3301C283.718 93.5711 284.975 91.7513 285.709 90.8121C286.076 90.3425 286.285 90.1077 286.285 90.1077C286.18 90.1077 285.604 90.049 284.713 90.1664C283.561 90.2838 281.884 90.636 279.998 91.5165C276.383 93.1602 272.034 96.741 269.152 104.372Z" fill="url(#paint7_linear)"/>
<path d="M276.959 108.07C277.064 108.129 277.169 108.129 277.273 108.188C278.531 108.657 279.788 109.127 281.098 109.538C282.618 110.008 284.137 110.418 285.656 110.771C285.761 110.829 285.866 110.829 285.971 110.829C286.809 107.836 287.281 105.077 287.49 102.67C288.014 96.8583 287.124 92.8665 286.6 91.1055C286.547 90.9294 286.495 90.7533 286.442 90.5772C286.39 90.4598 286.39 90.4011 286.338 90.3424C286.285 90.225 286.285 90.1663 286.233 90.1663C286.18 90.225 285.918 90.4011 285.499 90.7533C284.661 91.5164 283.246 93.1014 281.727 95.5668C280.05 98.4432 278.216 102.494 276.959 108.07Z" fill="url(#paint8_linear)"/>
<path d="M277.64 123.215C277.692 122.922 278.007 122.746 278.269 122.804C278.531 122.863 278.688 123.215 278.636 123.509C278.583 123.802 278.269 123.979 278.007 123.92C277.745 123.861 277.588 123.509 277.64 123.215ZM277.85 123.274C277.797 123.45 277.902 123.626 278.059 123.626C278.216 123.685 278.374 123.568 278.374 123.391C278.426 123.215 278.321 123.039 278.164 123.039C278.059 123.039 277.902 123.157 277.85 123.274Z" fill="#A3BCC6"/>
<path d="M284.451 89.6379C284.399 89.814 284.504 89.9902 284.661 90.1663C284.87 90.4011 285.132 90.5772 285.499 90.7533C285.551 90.7533 285.604 90.812 285.656 90.812C285.761 90.8707 285.918 90.9294 286.023 90.9294C286.128 90.9881 286.285 90.9881 286.39 91.0468C286.442 91.0468 286.495 91.0468 286.547 91.1055C286.914 91.1642 287.28 91.1642 287.542 91.1055C287.804 91.0468 287.962 90.9294 287.962 90.7533C287.385 90.5185 286.757 90.2837 286.18 90.1076C285.656 89.9902 285.08 89.814 284.451 89.6379Z" fill="url(#paint9_linear)"/>
<path d="M278.111 123.978L278.164 123.685C278.164 123.626 278.164 123.509 278.059 123.509C278.007 123.509 277.902 123.509 277.902 123.626L277.849 123.861L278.111 123.978Z" fill="#735321"/>
<path opacity="0.1" d="M263.441 100.439C265.118 101.789 267.056 103.139 269.204 104.372C269.571 104.607 269.938 104.783 270.357 105.018C272.4 106.133 274.653 107.19 277.011 108.07C277.116 108.129 277.221 108.129 277.326 108.188C278.583 108.657 279.84 109.127 281.15 109.538C282.67 110.008 284.189 110.419 285.709 110.771C285.813 110.829 285.918 110.829 286.023 110.829C288.433 111.358 290.791 111.769 293.044 111.945C293.516 112.003 293.935 112.003 294.406 112.062C296.659 112.238 298.86 112.18 300.798 111.945C298.703 110.888 296.659 109.714 294.668 108.364C293.463 107.542 292.258 106.662 291.105 105.722C289.848 104.724 288.695 103.726 287.543 102.611C287.333 102.435 287.176 102.259 287.019 102.083C286.966 102.024 286.914 101.965 286.861 101.907C285.185 100.204 283.561 98.3846 282.303 96.2713C282.198 96.0952 282.093 95.9778 282.041 95.8017C281.989 95.6843 281.936 95.6256 281.884 95.5082C281.727 95.2147 281.57 94.9212 281.412 94.6277C280.888 93.6297 280.469 92.5144 280.102 91.3991C279.84 90.5772 279.631 89.7554 279.474 88.9336C272.872 89.1097 266.899 92.4557 263.441 100.439Z" fill="#3F449C"/>
<defs>
<linearGradient id="paint0_linear" x1="287.19" y1="141.394" x2="262.46" y2="127.845" gradientUnits="userSpaceOnUse">
<stop stop-color="#EEBE1C"/>
<stop offset="0.9525" stop-color="#DD9A27"/>
</linearGradient>
<linearGradient id="paint1_linear" x1="276.805" y1="121.106" x2="287.127" y2="139.633" gradientUnits="userSpaceOnUse">
<stop stop-color="#EEBE1C"/>
<stop offset="0.9525" stop-color="#DD9A27"/>
</linearGradient>
<linearGradient id="paint2_linear" x1="284.944" y1="114.011" x2="274.964" y2="125.242" gradientUnits="userSpaceOnUse">
<stop stop-color="#EEBE1C"/>
<stop offset="0.9525" stop-color="#DD9A27"/>
</linearGradient>
<radialGradient id="paint3_radial" cx="0" cy="0" r="1" gradientUnits="userSpaceOnUse" gradientTransform="translate(300.757 112.1) rotate(-162.641) scale(0.253431 0.278833)">
<stop stop-color="#F04D23"/>
<stop offset="1" stop-color="#DA4726"/>
</radialGradient>
<linearGradient id="paint4_linear" x1="301.159" y1="101.161" x2="286.262" y2="101.161" gradientUnits="userSpaceOnUse">
<stop stop-color="#D23F83"/>
<stop offset="0.9888" stop-color="#F59BAA"/>
</linearGradient>
<linearGradient id="paint5_linear" x1="292.294" y1="116.344" x2="284.212" y2="90.4008" gradientUnits="userSpaceOnUse">
<stop stop-color="#EDC8D7"/>
<stop offset="0.9888" stop-color="white"/>
</linearGradient>
<linearGradient id="paint6_linear" x1="286.244" y1="97.0241" x2="263.419" y2="97.0241" gradientUnits="userSpaceOnUse">
<stop stop-color="#D23F83"/>
<stop offset="0.9888" stop-color="#F59BAA"/>
</linearGradient>
<linearGradient id="paint7_linear" x1="272.924" y1="109.216" x2="280.403" y2="94.3382" gradientUnits="userSpaceOnUse">
<stop stop-color="#EDC8D7"/>
<stop offset="0.9888" stop-color="white"/>
</linearGradient>
<linearGradient id="paint8_linear" x1="287.65" y1="100.494" x2="276.967" y2="100.494" gradientUnits="userSpaceOnUse">
<stop stop-color="#D23F83"/>
<stop offset="0.9888" stop-color="#F59BAA"/>
</linearGradient>
<linearGradient id="paint9_linear" x1="287.817" y1="91.4058" x2="284.16" y2="90.4951" gradientUnits="userSpaceOnUse">
<stop stop-color="#3F449C"/>
<stop offset="0.9944" stop-color="#4B4DA0"/>
</linearGradient>
</defs>
</svg>
