<svg width="1445" height="461" viewBox="0 0 1445 461" fill="none" xmlns="http://www.w3.org/2000/svg">
<path opacity="0.05" d="M481.667 6V90.939C477.556 91.5435 473.446 92.1481 469.336 92.7526C290.798 120.36 125.747 198.246 11.0462 308.979C7.44978 312.506 3.72489 316.032 0 319.66V85.095C20.6796 77.4374 41.616 70.4851 62.9378 64.2381C194.979 25.4463 336.91 11.844 477.813 6.20153C479.098 6.10077 480.382 6 481.667 6Z" fill="white"/>
<path opacity="0.05" d="M481.667 283V389.462C409.17 401.385 341.677 426.33 288.556 461H90.3125C140.226 445.018 187.445 424.047 231.713 401.977C313.833 361.134 391.334 314.964 481.667 283Z" fill="white"/>
<path opacity="0.05" d="M963.333 95.4551V155.864C814.852 100.211 643.764 70.8944 481.667 93.8401V1.00121C570.293 -2.52117 659.948 3.27755 746.776 17.9709C821.916 30.6514 892.817 71.201 963.333 95.4551Z" fill="white"/>
<path opacity="0.05" d="M963.333 227.133V354.463C952.673 352.959 941.883 352.395 930.965 352.959C875.477 355.874 830.265 400.638 800.98 435.332C793.915 443.7 787.621 452.256 781.456 461H648.002C651.213 437.589 643.892 412.391 621.157 395.749C588.533 371.586 535.228 381.304 490.016 388.826C487.19 389.296 484.493 389.766 481.667 390.33V284.008C491.942 279.965 502.218 276.204 512.879 272.632C585.193 248.186 664.058 214.006 743.18 207.988C816.907 202.347 894.744 208.705 963.333 227.133Z" fill="white"/>
<path opacity="0.05" d="M1445 213.291V461H1378.83C1331.81 390.951 1264.87 328.377 1188.17 274.715C1130.74 234.468 1067.27 198.629 998.023 170.552C986.588 165.953 975.025 161.545 963.333 157.328V96C993.012 105.774 1022.69 115.644 1052.5 125.035C1178.66 164.42 1310.48 194.03 1445 213.291Z" fill="white"/>
<path opacity="0.05" d="M1235.27 452H1122.62C1107.17 428.184 1083.71 406.498 1055.2 389.459C1028.93 373.582 997.186 360.803 963.333 356.253V206C986.229 211.809 1008.14 219.263 1028.65 228.751C1093.83 258.86 1137.79 305.91 1179.79 351.606C1198.33 371.743 1217.15 392.267 1226.57 415.211C1231.48 427.119 1233.73 439.511 1235.27 452Z" fill="white"/>
</svg>
