<svg width="592" height="90" viewBox="0 0 592 90" fill="none" xmlns="http://www.w3.org/2000/svg">
<path d="M591.651 83.0201L580.002 89.8437L577.119 79.4886L588.829 73.0242L591.651 83.0201Z" fill="url(#paint0_linear)"/>
<g opacity="0.2">
<g opacity="0.2">
<path opacity="0.2" d="M580.662 87.9881C580.602 87.9881 580.602 87.9881 580.602 87.9283L579.821 85.1151V85.0552L584.025 82.7208H584.085C584.085 82.7208 584.085 82.7208 584.145 82.7807L584.926 85.534V85.5939L580.662 87.9881Z" fill="#9E6D29"/>
</g>
</g>
<path d="M580.002 89.8437L572.316 89.1853L569.493 79.1893L577.119 79.4886L580.002 89.8437Z" fill="url(#paint1_linear)"/>
<path d="M577.119 79.4886L588.829 73.0242L581.563 73.3234L569.493 79.1893L577.119 79.4886Z" fill="url(#paint2_linear)"/>
<path d="M573.096 83.2596L571.955 79.3091L583.905 73.2038L585.346 73.1439L573.576 79.3689L574.717 83.4391L574.597 83.3194L574.537 83.3793L574.417 83.3194L574.357 83.3793L574.237 83.3194L574.177 83.3793L574.057 83.3194L573.997 83.3793L573.877 83.2596L573.817 83.3194L573.696 83.2596L573.636 83.3194L573.516 83.2596L573.456 83.3194L573.336 83.1997L573.276 83.3194L573.156 83.1997L573.096 83.2596Z" fill="#9E6D29"/>
<path opacity="0.2" d="M578.861 75.2988C578.801 75.3586 578.801 75.3586 578.741 75.2988L559.225 66.7992V66.7394C559.225 66.7394 559.285 66.6795 559.285 66.7394L578.741 75.1791H578.801C578.861 75.2389 578.861 75.2389 578.861 75.2988Z" fill="#3F449C"/>
<path opacity="0.2" d="M591.531 58.0005C591.531 58.0005 591.531 58.0603 591.531 58.0005L578.861 75.2988C578.861 75.2988 578.861 75.2988 578.801 75.2988H578.741C578.741 75.2988 578.681 75.239 578.741 75.239L578.801 75.1791L591.411 58.0005C591.411 57.9406 591.471 57.9406 591.531 58.0005C591.471 58.0005 591.531 58.0005 591.531 58.0005Z" fill="#3F449C"/>
<path d="M559.345 66.7395C559.345 66.7996 559.285 66.7996 559.285 66.7996V66.7395C559.285 66.6794 559.285 66.6794 559.345 66.7395Z" fill="url(#paint3_radial)"/>
<path d="M571.955 50.2191C571.895 50.279 571.895 50.279 571.895 50.3987C571.895 50.4585 571.835 50.5184 571.835 50.5783C571.775 50.698 571.715 50.8177 571.655 50.9374C570.995 52.7929 569.313 57.8807 567.872 62.1305C567.272 63.986 566.671 65.6619 566.191 66.8591C565.83 66.9189 565.41 66.9189 565.05 66.9189C563.068 67.0386 561.267 67.0386 559.525 66.8591C559.405 66.8591 559.345 66.8591 559.225 66.7992C558.565 58.4194 563.669 52.9725 570.394 50.6381C570.874 50.5184 571.415 50.3388 571.955 50.2191C571.895 50.2191 571.955 50.2191 571.955 50.2191Z" fill="url(#paint4_linear)"/>
<path d="M572.495 65.9612C572.375 65.9612 572.315 66.0211 572.195 66.0211C570.094 66.4401 568.052 66.7394 566.13 66.9189C565.77 66.9788 565.35 66.9788 564.99 66.9788C564.869 66.0211 564.749 65.0634 564.749 64.1655C564.569 56.504 568.712 52.4936 570.754 50.9374C571.295 50.5184 571.715 50.279 571.895 50.2191H571.955C571.955 50.279 571.895 50.5184 571.835 50.9374C571.595 52.1944 571.234 55.0674 571.535 59.2574C571.655 61.2326 571.955 63.4473 572.495 65.9612Z" fill="url(#paint5_linear)"/>
<path d="M591.591 58.0602C590.15 59.0778 588.468 60.0953 586.667 61.053C586.367 61.2326 586.006 61.3523 585.706 61.5319C583.484 59.796 579.401 56.3244 576.279 53.6907C574.717 52.3739 573.396 51.2965 572.676 50.6979C572.315 50.3987 572.075 50.2191 572.015 50.2191C572.496 50.0994 573.036 49.9198 573.576 49.86C575.078 49.5607 576.519 49.3811 577.96 49.3811C583.424 49.441 588.528 52.0148 591.591 58.0602Z" fill="url(#paint6_linear)"/>
<path opacity="0.2" d="M591.532 58.0009C591.471 58.0009 591.471 58.0009 591.411 58.0009C591.411 57.9405 591.471 57.9405 591.532 58.0009C591.471 58.0009 591.532 58.0009 591.532 58.0009Z" fill="#3F449C"/>
<path d="M586.607 61.053C586.307 61.2326 585.946 61.3523 585.646 61.5319C583.905 62.3699 581.983 63.2078 579.941 63.8663C579.881 63.8663 579.761 63.9261 579.701 63.9261C578.32 60.0953 576.819 57.1025 575.498 54.8879C574.237 52.7929 573.096 51.3564 572.496 50.698C572.195 50.3388 572.015 50.1593 572.015 50.1593C572.135 50.1593 572.616 50.0994 573.396 50.2191C574.357 50.3388 575.798 50.5782 577.419 51.2367C580.422 52.4936 584.145 55.247 586.607 61.053Z" fill="url(#paint7_linear)"/>
<path d="M579.942 63.9262C579.881 63.9262 579.761 63.986 579.701 63.986C578.621 64.3452 577.54 64.7043 576.399 65.0036C575.078 65.3627 573.757 65.662 572.496 65.9613C572.376 65.9613 572.316 66.0211 572.195 66.0211C571.475 63.6867 571.054 61.6516 570.874 59.7961C570.394 55.3668 571.175 52.3141 571.655 50.9973C571.715 50.8177 571.775 50.698 571.775 50.6381C571.835 50.5783 571.835 50.5184 571.835 50.4586C571.895 50.3987 571.895 50.3389 571.895 50.3389C571.955 50.3987 572.195 50.5184 572.496 50.8177C573.216 51.4163 574.417 52.6134 575.738 54.5288C577.299 56.5639 578.861 59.6764 579.942 63.9262Z" fill="url(#paint8_linear)"/>
<path d="M579.041 76.0171C578.801 76.0769 578.56 75.9572 578.5 75.7178C578.44 75.4784 578.56 75.2389 578.801 75.1791C579.041 75.1192 579.281 75.2389 579.341 75.4784C579.401 75.7178 579.281 75.9572 579.041 76.0171ZM578.861 75.3586C578.741 75.4185 578.68 75.5382 578.68 75.6579C578.741 75.7776 578.861 75.8375 578.981 75.8375C579.101 75.7776 579.161 75.6579 579.161 75.5382C579.101 75.4185 578.981 75.3586 578.861 75.3586Z" fill="#A3BCC6"/>
<path d="M573.516 49.8002C573.576 49.9199 573.456 50.0995 573.336 50.2192C573.156 50.3987 572.916 50.5184 572.616 50.6382C572.556 50.6382 572.556 50.698 572.496 50.698C572.376 50.7579 572.255 50.7579 572.135 50.8177C572.015 50.8776 571.895 50.8776 571.835 50.8776C571.775 50.8776 571.715 50.8776 571.715 50.8776C571.355 50.9374 571.054 50.9374 570.874 50.8776C570.694 50.8177 570.514 50.7579 570.514 50.6382C570.994 50.4586 571.535 50.279 572.075 50.1593C572.436 50.0396 572.976 49.9199 573.516 49.8002Z" fill="url(#paint9_linear)"/>
<path d="M578.981 76.0768L578.921 75.8374C578.921 75.7775 578.921 75.7177 578.981 75.6578C579.041 75.6578 579.101 75.6578 579.161 75.7177L579.221 75.8973L578.981 76.0768Z" fill="#735321"/>
<path opacity="0.1" d="M591.591 58.0602C590.15 59.0778 588.468 60.0953 586.667 61.053C586.367 61.2326 586.006 61.3523 585.706 61.5319C583.965 62.3698 582.043 63.2078 580.002 63.8662C579.942 63.8662 579.821 63.9261 579.761 63.9261C578.681 64.2852 577.6 64.6444 576.459 64.9436C575.138 65.3028 573.817 65.6021 572.556 65.9013C572.436 65.9013 572.375 65.9612 572.255 65.9612C570.154 66.3802 568.112 66.6795 566.191 66.859C565.83 66.9189 565.41 66.9189 565.05 66.9189C563.068 67.0386 561.267 67.0386 559.525 66.859C561.327 66.0809 563.068 65.1831 564.809 64.1655C565.83 63.567 566.851 62.8487 567.872 62.1903C568.953 61.4121 569.974 60.634 570.934 59.796C571.114 59.6763 571.235 59.5566 571.415 59.377C571.475 59.3172 571.535 59.2573 571.595 59.2573C573.036 57.9405 574.417 56.5638 575.558 54.9477C575.618 54.828 575.738 54.7083 575.798 54.5886C575.858 54.5287 575.918 54.4689 575.918 54.409C576.038 54.1696 576.219 53.99 576.339 53.7506C576.759 52.9725 577.179 52.1345 577.48 51.2965C577.72 50.6979 577.9 50.0395 578.02 49.3811C583.424 49.441 588.528 52.0148 591.591 58.0602Z" fill="#3F449C"/>
<defs>
<linearGradient id="paint0_linear" x1="571.146" y1="89.3692" x2="591.171" y2="77.0379" gradientUnits="userSpaceOnUse">
<stop stop-color="#EEBE1C"/>
<stop offset="0.9525" stop-color="#DD9A27"/>
</linearGradient>
<linearGradient id="paint1_linear" x1="580.066" y1="73.8647" x2="572.684" y2="88.7589" gradientUnits="userSpaceOnUse">
<stop stop-color="#EEBE1C"/>
<stop offset="0.9525" stop-color="#DD9A27"/>
</linearGradient>
<linearGradient id="paint2_linear" x1="573.075" y1="68.4422" x2="580.548" y2="77.8946" gradientUnits="userSpaceOnUse">
<stop stop-color="#EEBE1C"/>
<stop offset="0.9525" stop-color="#DD9A27"/>
</linearGradient>
<radialGradient id="paint3_radial" cx="0" cy="0" r="1" gradientUnits="userSpaceOnUse" gradientTransform="translate(559.383 66.7253) rotate(-15.5604) scale(0.21403 0.213698)">
<stop stop-color="#F04D23"/>
<stop offset="1" stop-color="#DA4726"/>
</radialGradient>
<linearGradient id="paint4_linear" x1="559.147" y1="58.6213" x2="571.943" y2="58.6213" gradientUnits="userSpaceOnUse">
<stop stop-color="#5654A4"/>
<stop offset="0.9944" stop-color="#6F9CD2"/>
</linearGradient>
<linearGradient id="paint5_linear" x1="566.762" y1="70.2248" x2="572.36" y2="50.0257" gradientUnits="userSpaceOnUse">
<stop stop-color="#EDC8D7"/>
<stop offset="0.9888" stop-color="white"/>
</linearGradient>
<linearGradient id="paint6_linear" x1="571.958" y1="55.4599" x2="591.564" y2="55.4599" gradientUnits="userSpaceOnUse">
<stop stop-color="#5654A4"/>
<stop offset="0.9944" stop-color="#6F9CD2"/>
</linearGradient>
<linearGradient id="paint7_linear" x1="583.4" y1="64.7774" x2="578.091" y2="52.908" gradientUnits="userSpaceOnUse">
<stop stop-color="#EDC8D7"/>
<stop offset="0.9888" stop-color="white"/>
</linearGradient>
<linearGradient id="paint8_linear" x1="570.751" y1="58.1116" x2="579.927" y2="58.1116" gradientUnits="userSpaceOnUse">
<stop stop-color="#5654A4"/>
<stop offset="0.9944" stop-color="#6F9CD2"/>
</linearGradient>
<linearGradient id="paint9_linear" x1="570.499" y1="50.9122" x2="573.593" y2="50.0463" gradientUnits="userSpaceOnUse">
<stop stop-color="#3F449C"/>
<stop offset="0.9944" stop-color="#4B4DA0"/>
</linearGradient>
</defs>
</svg>
