<svg xmlns="http://www.w3.org/2000/svg" viewBox="0 0 157.8 26"><defs><style>.cls-1{fill:#d10b54;}.cls-2{fill:#36f;}.cls-3{fill:#f43d8d;}.cls-4{fill:#3333b0;}.cls-5{fill:#fff;}.cls-6{fill:#979798;}.cls-7{fill:#b3b3b5;}</style></defs><title>Asset 1</title><g id="Layer_2" data-name="Layer 2"><g id="Layer_1-2" data-name="Layer 1"><path class="cls-1" d="M51.06,7.07a7,7,0,0,0-5.6,2.31,9.26,9.26,0,0,0-2,6.27,9.17,9.17,0,0,0,2,6.24,7.06,7.06,0,0,0,5.6,2.3,7.12,7.12,0,0,0,5.63-2.31,9.17,9.17,0,0,0,2-6.23,9.21,9.21,0,0,0-2-6.27A7.08,7.08,0,0,0,51.06,7.07Zm-4.18,8.58A6.49,6.49,0,0,1,48,11.54a4.18,4.18,0,0,1,6.11,0,6.48,6.48,0,0,1,1.13,4.12,6.52,6.52,0,0,1-1.12,4.11,3.7,3.7,0,0,1-3.07,1.31A3.63,3.63,0,0,1,48,19.74,6.43,6.43,0,0,1,46.88,15.65Z"/><polygon class="cls-1" points="75.18 7.44 70.66 7.44 64.44 13.48 64.44 3.21 61.11 3.21 61.11 23.81 64.44 23.81 64.44 17.81 66.28 16.05 71.46 23.81 75.37 23.81 68.66 13.76 75.18 7.44"/><path class="cls-1" d="M82.71,7.07a7,7,0,0,0-5.6,2.31,9.31,9.31,0,0,0-2,6.27,9.17,9.17,0,0,0,2,6.24,7,7,0,0,0,5.59,2.3,7.14,7.14,0,0,0,5.64-2.31,9.17,9.17,0,0,0,2-6.23,9.21,9.21,0,0,0-2-6.27A7.1,7.1,0,0,0,82.71,7.07Zm-4.17,8.58a6.49,6.49,0,0,1,1.13-4.11,4.18,4.18,0,0,1,6.11,0,6.48,6.48,0,0,1,1.13,4.12,6.45,6.45,0,0,1-1.13,4.11,3.68,3.68,0,0,1-3.07,1.31,3.63,3.63,0,0,1-3-1.33A6.43,6.43,0,0,1,78.54,15.65Z"/><path class="cls-1" d="M99.76,7.07c-1.68,0-2.64,1.46-3.22,2.32l-.2.3c-.11.14-.2.28-.3.42V7.44H92.76V23.81h3.39V15.36a6,6,0,0,1,.67-3.24l0,0a3.09,3.09,0,0,1,2.67-1.61h1.28V7.07h-1Z"/><path class="cls-1" d="M135.7,7.07a3.87,3.87,0,0,0-2.95,1.13,14.52,14.52,0,0,0-1.5,1.65A4.77,4.77,0,0,0,130.05,8a4.36,4.36,0,0,0-3.13-1c-1.82,0-3.18,1.64-3.92,2.52a1.47,1.47,0,0,1-.1.13V7.44h-3.23V23.81H123V14.7a5.16,5.16,0,0,1,.9-3.11,3.38,3.38,0,0,1,2.62-1.36,2.13,2.13,0,0,1,1.72.61l0,0c.55.55.54,1.91.53,2.9v10h3.34v-9a5.51,5.51,0,0,1,.72-3,3.82,3.82,0,0,1,2.78-1.57,2.34,2.34,0,0,1,1.76.53l0,0c.39.41.49.86.49,2.1v11h3.37V12.72a5.78,5.78,0,0,0-1.42-4.21A5.63,5.63,0,0,0,135.7,7.07Z"/><path class="cls-1" d="M156,9.33a6.52,6.52,0,0,0-5.25-2.26,6.64,6.64,0,0,0-5.39,2.36,9.58,9.58,0,0,0-1.9,6.27,9.35,9.35,0,0,0,1.9,6.18,6.61,6.61,0,0,0,5.34,2.34,7.24,7.24,0,0,0,4.7-1.54,6,6,0,0,0,1.74-2.28l.49-1.14H154l-.24.38a2.82,2.82,0,0,1-.65.73,3.68,3.68,0,0,1-2.39.76,3.5,3.5,0,0,1-2.87-1.3,5.48,5.48,0,0,1-1.09-3.06h11V15.38A9.17,9.17,0,0,0,156,9.33Zm-8,2a3.4,3.4,0,0,1,2.68-1.14,3.24,3.24,0,0,1,2.61,1.11,4.85,4.85,0,0,1,1.05,2.49h-7.44A4.82,4.82,0,0,1,148,11.32Z"/><path class="cls-1" d="M41.31,21.68C40,21.39,39.77,21,39.47,20.4a4.71,4.71,0,0,1-.24-1.78,1.15,1.15,0,0,0,0-.19c0-5.35,0-6.33,0-6.53V10.46h2.73v-3H39.21V3.21H35.87V7.44h-2v3h2v1.92c0,.14,0,1.8,0,2.9v.44h0V21.1a1.28,1.28,0,0,0,0,.18,2.86,2.86,0,0,0,.84,1.93,2.79,2.79,0,0,0,.85.52l.1,0a3.53,3.53,0,0,0,1.41.25h0a18.47,18.47,0,0,0,2.14-.13L42,23.8v-2Z"/><path class="cls-1" d="M115.71,20.8h0a4.42,4.42,0,0,1-.23-1.71V12.35a4.9,4.9,0,0,0-1.67-4,7,7,0,0,0-4.54-1.32h0c-1,0-4.67,0-4.83,0h-.81v3.36l.85,0s3.9-.15,5.29-.07a3.2,3.2,0,0,1,1.78.44c.27.23.57.64.57,1.77,0,.19,0,.72-1.45,1l-.45.08c-.19,0-.48.05-.84.07a15,15,0,0,0-4.67.9h0a4.9,4.9,0,0,0-2.09,1.78,4.77,4.77,0,0,0-.74,2.64,4.74,4.74,0,0,0,1.6,3.72,6,6,0,0,0,4.1,1.37,7.84,7.84,0,0,0,3.27-.7,8.27,8.27,0,0,0,1.63-1,2.52,2.52,0,0,0,.51.73,2.94,2.94,0,0,0,2.16.74c.27,0,.93,0,1.29-.06l.73-.08v-2.1l-.56-.18A1.39,1.39,0,0,1,115.71,20.8Zm-9.88-3a4.49,4.49,0,0,1,2.1-1,12,12,0,0,1,2.61-.23l.67,0a6.8,6.8,0,0,0,.88-.11v.93A3.38,3.38,0,0,1,111,20a4.67,4.67,0,0,1-3.2,1,2.9,2.9,0,0,1-1.91-.56,1.69,1.69,0,0,1-.61-1.39A1.75,1.75,0,0,1,105.83,17.76Z"/><polygon class="cls-2" points="9.98 0 8.31 4.56 0 4.56 2.44 0 9.98 0"/><polygon class="cls-3" points="16.63 4.56 8.31 4.56 9.96 0 15.19 0 16.63 4.56"/><polygon class="cls-2" points="24.94 4.56 16.63 4.56 15.17 0 22.53 0 24.94 4.56"/><path class="cls-4" d="M0,4.56v17A4.37,4.37,0,0,0,4.16,26a4.36,4.36,0,0,0,4.15-4.44v-17Z"/><path class="cls-1" d="M8.31,4.56v17A4.37,4.37,0,0,0,12.47,26a4.37,4.37,0,0,0,4.16-4.44v-17Z"/><path class="cls-4" d="M16.63,4.56V19.71h0v1.85A4.36,4.36,0,0,0,20.78,26a4.36,4.36,0,0,0,4.16-4.44h0v-17Z"/><path class="cls-5" d="M5.4,7.78a1.38,1.38,0,0,1,.14.3C5.49,8,5.44,7.88,5.4,7.78Z"/><path class="cls-5" d="M19.47,7.72c-.07.14-.13.28-.2.41A1.3,1.3,0,0,1,19.47,7.72Z"/><path class="cls-6" d="M5.54,8.08c0-.1-.1-.2-.14-.3A1.38,1.38,0,0,1,5.54,8.08Z"/><path class="cls-6" d="M19.47,7.72c-.07.14-.13.28-.2.41A1.3,1.3,0,0,1,19.47,7.72Z"/><path class="cls-5" d="M22,8.54A1.31,1.31,0,0,1,22,9c0,.12-.11.23-.16.34A10.53,10.53,0,0,1,3.07,9.4l-.24-.49a1.5,1.5,0,0,1,0-.37A1.41,1.41,0,0,1,4.2,7.13a1.44,1.44,0,0,1,1.2.65c0,.1.09.2.14.3h0a7.73,7.73,0,0,0,13.73.05c.07-.13.13-.27.2-.41A1.41,1.41,0,0,1,22,8.54Z"/><path class="cls-7" d="M2.83,8.91l.24.49A1.49,1.49,0,0,1,2.83,8.91Z"/><path class="cls-7" d="M5.54,8.08c0-.1-.1-.2-.14-.3A1.38,1.38,0,0,1,5.54,8.08Z"/><path class="cls-7" d="M19.27,8.13a1.3,1.3,0,0,1,.2-.41C19.4,7.86,19.34,8,19.27,8.13Z"/><path class="cls-7" d="M22,9a1.33,1.33,0,0,1-.16.34C21.86,9.21,21.92,9.1,22,9Z"/></g></g></svg>