<svg width="39" height="45" viewBox="0 0 39 45" fill="none" xmlns="http://www.w3.org/2000/svg">
<path d="M15.6889 0L13.1179 7.89474H0.25L4.03096 0H15.6889Z" fill="#3366FF"/>
<path d="M25.9732 7.89474H13.1179L15.6638 0H23.755L25.9732 7.89474Z" fill="#F43D8D"/>
<path d="M38.841 7.89474H25.9731L23.7297 0H35.1104L38.841 7.89474Z" fill="#3366FF"/>
<path d="M0.25 7.89478V34.1166V37.3168C0.25 41.4756 3.19915 45 6.67763 45C10.1561 45 13.1053 41.4756 13.1053 37.3168V34.1166V7.89478H0.25Z" fill="#3333B0"/>
<path d="M13.1179 7.89478V34.1166V37.3168C13.1179 41.4756 16.0671 45 19.5455 45C23.024 45 25.9732 41.4756 25.9732 37.3168V34.1166V7.89478H13.1179Z" fill="#D10B54"/>
<path d="M25.9731 7.89478V34.1166V37.3168C25.9731 41.4756 28.9223 45 32.4008 45C35.8792 45 38.8284 41.4756 38.8284 37.3168V34.1166V7.89478H25.9731Z" fill="#3333B0"/>
<path d="M8.59326 13.4634C8.68183 13.6185 8.75775 13.8017 8.82101 13.985C8.74509 13.8017 8.66918 13.6326 8.59326 13.4634Z" fill="white"/>
<path d="M30.3717 13.3647C30.2709 13.6044 30.1701 13.8441 30.0566 14.0696C30.1323 13.8159 30.2331 13.5762 30.3717 13.3647Z" fill="white"/>
<path d="M8.82101 13.9708C8.74509 13.8017 8.66918 13.6325 8.59326 13.4492C8.69448 13.6184 8.7704 13.7876 8.82101 13.9708Z" fill="#979798"/>
<path d="M30.3717 13.3647C30.2709 13.6044 30.1701 13.8441 30.0566 14.0696C30.1323 13.8159 30.2331 13.5762 30.3717 13.3647Z" fill="#979798"/>
<path d="M34.3542 14.7745C34.3542 15.0424 34.3164 15.2962 34.2408 15.5358C34.1652 15.7332 34.077 15.9306 33.9887 16.1279C31.3043 22.049 25.8093 26.095 19.4699 26.095C13.1809 26.095 7.7237 22.1054 5.01402 16.2548C4.88799 15.9728 4.76195 15.6909 4.63592 15.3948C4.58551 15.1975 4.5603 14.986 4.5603 14.7745C4.5603 13.4212 5.54335 12.3215 6.75326 12.3215C7.53465 12.3215 8.21523 12.7727 8.60593 13.4494C8.68154 13.6185 8.74456 13.7877 8.83278 13.971C8.83278 13.971 8.83278 13.971 8.83278 13.9851C10.8115 18.299 14.8319 21.2595 19.4699 21.2595C24.07 21.2595 28.0652 18.3413 30.0692 14.0697C30.1826 13.83 30.2834 13.6044 30.3842 13.3648C30.7749 12.7445 31.4303 12.3215 32.1739 12.3215C33.3712 12.3356 34.3542 13.4212 34.3542 14.7745Z" fill="white"/>
<path d="M4.63599 15.4089C4.74941 15.6909 4.87545 15.9869 5.01408 16.2689C4.83764 16.0151 4.71161 15.7332 4.63599 15.4089Z" fill="#B3B3B5"/>
<path d="M8.82101 13.9708C8.74509 13.8017 8.66918 13.6325 8.59326 13.4492C8.69448 13.6184 8.7704 13.7876 8.82101 13.9708Z" fill="#B3B3B5"/>
<path d="M30.0566 14.0836C30.1323 13.8298 30.2331 13.5901 30.3717 13.3787C30.2709 13.6042 30.1701 13.8439 30.0566 14.0836Z" fill="#B3B3B5"/>
<path d="M34.2408 15.5356C34.1778 15.7471 34.0896 15.9445 33.9888 16.1277C34.077 15.9445 34.1652 15.7471 34.2408 15.5356Z" fill="#B3B3B5"/>
</svg>
